<svg
  xmlns="http://www.w3.org/2000/svg"
  viewBox="0 0 25 25"
  width="25"
  height="25"
>
  <path
    d="M 19.2574 15.4535 C 18.8889 16.497 18.3042 17.4509 17.5416 18.2527 C 16.7789 19.0546 15.8555 19.6863 14.8318 20.1066 V 15.4535 L 17.3607 13.1586 L 14.8318 10.8952 V 7.69619 C 15.8763 7.67489 16.8715 7.24792 17.6067 6.50567 C 18.3419 5.76342 18.7593 4.76418 18.7706 3.71953 C 18.7706 0.975708 16.1532 0.00209168 14.6675 0.00209168 C 14.2653 -0.0102783 13.8633 0.0322617 13.4726 0.128535 V 0.261301 C 13.6686 0.261301 13.9594 0.22969 14.0542 0.22969 C 15.0847 0.22969 15.8624 0.716498 15.8624 1.65218 C 15.8562 1.85411 15.809 2.05266 15.7235 2.23571 C 15.638 2.41875 15.5161 2.58244 15.3652 2.71677 C 15.2143 2.85109 15.0376 2.95323 14.8459 3.01695 C 14.6542 3.08066 14.4515 3.1046 14.2502 3.08732 C 11.7213 3.08732 8.693 1.01996 5.43075 1.01996 C 2.52255 1.00732 0.537385 3.17583 0.537385 5.36962 C 0.537385 7.56342 1.80182 8.24622 3.12316 8.7267 L 3.15477 8.60026 C 2.91743 8.45028 2.72511 8.23886 2.59822 7.98842 C 2.47133 7.73797 2.41459 7.45785 2.43404 7.17777 C 2.4493 6.92796 2.51386 6.68363 2.62398 6.45888 C 2.73411 6.23414 2.88763 6.03341 3.07569 5.86826 C 3.26375 5.70312 3.48264 5.57683 3.71973 5.49668 C 3.95683 5.41652 4.20745 5.38408 4.45714 5.40124 C 7.20096 5.40124 11.6265 7.69619 14.3766 7.69619 H 14.6359 V 10.9268 L 12.107 13.1586 L 14.6359 15.4535 V 20.1572 C 13.5788 20.533 12.4638 20.7192 11.342 20.7072 C 7.07452 20.7072 4.38759 18.1215 4.38759 13.8287 C 4.37897 12.8127 4.51955 11.8009 4.80486 10.8257 L 6.93543 9.88999 V 19.3733 L 11.2661 17.4766 V 7.75941 L 4.88072 10.6044 C 5.17861 9.73458 5.646 8.93247 6.25588 8.24446 C 6.86575 7.55645 7.606 6.99621 8.43379 6.59613 L 8.40218 6.5013 C 4.13471 7.43698 0 10.6739 0 15.5167 C 0 21.1055 4.71635 25 10.2103 25 C 16.0267 25 19.3206 21.1245 19.3522 15.4725 L 19.2574 15.4535 Z"
    fill="black"
  />
</svg>
